# xmcd
# 
# Track frame offsets:
#     150
#     14562
#     28207
#     46515
#     60465
#     84247
#     98650
#     113345
#     130405
#     151745
# 
# Disc length: 2226
# 
# Revision: 0
# Processed by: cddbd v1.5.2PL0 Copyright (c) Steve Scherf et al.
# Submitted via: fre:ac v1.0.17
# 
DISCID=6908b00a
DTITLE=Sonny Landreth - Down In Louisiana
DYEAR=1993
DGENRE=Blues
TTITLE0=Ay Ai Ai
TTITLE1=Sugar Cane
TTITLE2=I Had A Dream
TTITLE3=Without My Baby
TTITLE4=Congo Square
TTITLE5=Checkig Upn On My Baby
TTITLE6=The Parish Line
TTITLE7=Little India
TTITLE8=If I Ever Get Lucky
TTITLE9=Everybody's Breakin' Everybody's Heart
EXTD=Epic (SONY Music)  EK 44065
EXTT0=
EXTT1=
EXTT2=
EXTT3=
EXTT4=
EXTT5=
EXTT6=
EXTT7=
EXTT8=
EXTT9=
PLAYORDER=
